<svg width="17" height="17" viewBox="0 0 17 17" fill="none" xmlns="http://www.w3.org/2000/svg">
<path d="M17 8.53166C17 3.81925 13.1949 0 8.5 0C3.80508 0 0 3.81925 0 8.53166C0 12.5309 2.7459 15.8902 6.44805 16.8134V11.1378H4.69492V8.53166H6.44805V7.40855C6.44805 4.50578 7.75625 3.15938 10.5984 3.15938C11.1363 3.15938 12.066 3.26603 12.4479 3.37267V5.73221C12.2486 5.71221 11.9 5.69888 11.465 5.69888C10.0705 5.69888 9.53262 6.22878 9.53262 7.60518V8.53166H12.3084L11.8303 11.1378H9.5293V17C13.7395 16.4901 17 12.8941 17 8.53166Z" fill="#009EF7"/>
</svg>
