<svg width="46" height="43" viewBox="0 0 46 43" fill="none" xmlns="http://www.w3.org/2000/svg">
<path d="M10.1139 1.83928C10.5903 3.25022 9.81615 4.77033 8.39549 5.24065L6.16667 5.97131V16.125C6.16667 20.5762 9.82466 24.1875 14.3333 24.1875C18.842 24.1875 22.5 20.5762 22.5 16.125V5.97131L20.2797 5.24065C18.8505 4.77033 18.0849 3.25022 18.5613 1.83928C19.0377 0.428341 20.5774 -0.327518 22.0066 0.142794L24.2269 0.873458C26.4472 1.60412 27.9445 3.65334 27.9445 5.97131V16.125C27.9445 22.6086 23.2997 28.0172 17.1151 29.2854C17.651 33.9801 21.6833 37.625 26.5833 37.625C31.8491 37.625 36.1111 33.4174 36.1111 28.2188V22.2811C33.7037 21.2481 32.0278 18.8797 32.0278 16.125C32.0278 12.4129 35.0733 9.40627 38.8333 9.40627C42.5934 9.40627 45.6389 12.4129 45.6389 16.125C45.6389 18.8797 43.963 21.2481 41.5556 22.2811V28.2188C41.5556 36.382 34.8521 43 26.5833 43C18.6804 43 12.2151 36.9615 11.6537 29.3022C5.41806 28.0676 0.722229 22.6422 0.722229 16.125V5.97131C0.722229 3.66174 2.21945 1.60412 4.44827 0.873458L6.66858 0.142794C8.09775 -0.327518 9.63751 0.436739 10.1139 1.83928ZM38.8333 18.8125C39.5553 18.8125 40.2477 18.5294 40.7582 18.0254C41.2688 17.5214 41.5556 16.8378 41.5556 16.125C41.5556 15.4123 41.2688 14.7287 40.7582 14.2247C40.2477 13.7207 39.5553 13.4375 38.8333 13.4375C38.1114 13.4375 37.419 13.7207 36.9084 14.2247C36.3979 14.7287 36.1111 15.4123 36.1111 16.125C36.1111 16.8378 36.3979 17.5214 36.9084 18.0254C37.419 18.5294 38.1114 18.8125 38.8333 18.8125Z" fill="white"/>
</svg>
