<svg width="51" height="51" viewBox="0 0 51 51" fill="none" xmlns="http://www.w3.org/2000/svg">
<path d="M43.9222 0.688605L47.11 3.87634L50.2977 7.06407C51.2341 8.00047 51.2341 9.51464 50.2977 10.4411C49.3613 11.3675 47.8471 11.3775 46.9207 10.4411L45.4264 8.94683L41.6211 12.7422L47.1 18.2211C48.0364 19.1575 48.0364 20.6717 47.1 21.5981C46.1636 22.5246 44.6494 22.5345 43.723 21.5981L36.5506 14.4257L29.3782 7.26331C28.4418 6.32691 28.4418 4.81274 29.3782 3.8863C30.3146 2.95987 31.8288 2.9499 32.7552 3.8863L38.2341 9.36522L42.0395 5.56982L40.5353 4.07557C39.5989 3.13918 39.5989 1.625 40.5353 0.698567C41.4717 -0.227868 42.9858 -0.23783 43.9123 0.698567L43.9222 0.688605ZM20.9407 15.5016L27.0272 9.41502C27.0571 9.44491 27.087 9.48476 27.1269 9.51464L28.7207 11.1085L34.2993 16.687L39.8778 22.2656L41.4717 23.8594C41.5015 23.8893 41.5314 23.9192 41.5713 23.9591L22.5445 42.9858C21.4985 44.0318 20.084 44.6196 18.5997 44.6196H9.74376L4.07557 50.2977C3.13918 51.2341 1.625 51.2341 0.698567 50.2977C-0.227868 49.3613 -0.23783 47.8471 0.698567 46.9207L6.37672 41.2425V32.3966C6.37672 30.9123 6.96446 29.4977 8.01043 28.4518L12.3238 24.1384L18.002 29.8165C18.6196 30.4341 19.6357 30.4341 20.2533 29.8165C20.8709 29.1989 20.8709 28.1828 20.2533 27.5652L14.5752 21.887L18.6993 17.7629L24.3774 23.441C24.9951 24.0587 26.0112 24.0587 26.6288 23.441C27.2464 22.8234 27.2464 21.8073 26.6288 21.1897L20.9506 15.5116L20.9407 15.5016Z" fill="#009EF7"/>
</svg>
