<svg width="20" height="15" viewBox="0 0 20 15" fill="none" xmlns="http://www.w3.org/2000/svg">
<path d="M19.5826 2.34766C19.3519 1.42187 18.6745 0.695312 17.814 0.449219C16.2541 0 10 0 10 0C10 0 3.74588 0 2.18601 0.449219C1.32552 0.695312 0.648114 1.42187 0.41743 2.34766C0 4.02344 0 7.51562 0 7.51562C0 7.51562 0 11.0078 0.41743 12.6836C0.648114 13.6094 1.32552 14.3047 2.18601 14.5508C3.74588 15 10 15 10 15C10 15 16.2541 15 17.814 14.5508C18.6745 14.3047 19.3519 13.6055 19.5826 12.6836C20 11.0078 20 7.51562 20 7.51562C20 7.51562 20 4.02344 19.5826 2.34766ZM7.95679 10.6875V4.34375L13.182 7.51562L7.95679 10.6875Z" fill="#009EF7"/>
</svg>
